P1
100 100

1000100010101111101011001111000000101101101110111101011001010000010010101110010101010100000011111110
0101110100111100000000101000111001110101010110010001011100101110010010011001000010011000000011010001
0111011010001011010000110111000010100011000000110101101010000111100011110101000111101000011100111001
0101000000101000100101010010001011100100100100000111010101111111101000101011011001011000010001000010
1000000010100001000000110011000101111100101110010100010000101111100100010100010100111010000011100101
0100010001100101111100111001011001001000010000110101010101111001111101110110001010111001111101000011
0100011010011100010011100011111001001100000011110000001011111001010111110110000111100101101011001011
0001000111000010100111001101010110111000011100110110111010001010000110101111101010101011110011110100
1010000011000100100010100011010010100001110011001000001001011000101111101000110110011000001000111111
0000110111000100010110101010110101101101110001010100110010101010100100000010111110000101001111100011
0100101101001101110100001010001100000100001001101111111110000100100000111111000001000011101101000010
1100010000100111110000000101111010110100101011000100101000001101100101000000001010011011000101111011
0111110000011011000010101011010110110010111110100111001100110011010100010100011100111010010010100101
0111101101100011101001000111010010100110011001000011110111001001110100101001000011110011010010010100
1100101011010001110011011111110000100000100100010100101010100011100100100001100110100001100100110111
0110001000000101100010010111011011010000010000001101011100111110000001000100001111000010001100101100
0001001011001111110111111010110110011011101001001101100001001001101101111110100000011001101010100001
0000011010101111111110110110101011110101011101010101001000010111010011001110001100010001110010001010
0011110010110100111101011111011111101101010000100100101001010000100101100111101100010001010011001000
0100010111100000010001001101000100000000101000001001111001011101110001001000010000111110011001010110
1100001011000001110100101011100010110101001100100010010001100100011111011111000111101110100010110100
1111001001111100011101110000110011001000100000001011111011010110100001110011111101100001110001001101
0101100100000111100000011111000000010001111110111111001011000101100110111001101101110010011001100011
0110001111101100101101010011011011011111001010100110000011001111101100010100011011000111001100001101
1011100000111001111100100001001111001011000001001110100011101111111000111111110111010110010111101101
0110100101100110101010010000011010010011100100110001011101110110101000010011110111101101110111110110
1000011001010000000101100110010111010011111010001101001110000010110001100000110100100010100101101011
1011101000011100101100100100111011111100101100100001000100000011110000010100111101000001111111100100
1100101001000100010011000011101010011010001101010011111111000100001111010111011001110000001101010001
0110110011010001001001111101100011100011111111011101111011000010010010011011010000010001110011000100
0000110000110111011010001101000010010010011010000100010101100101010000001011011111001000011111010101
1001110111110010110010111001100010100011101101100110011010110101000001011110111000010000010010100100
1101001001110111110000011100110011100100001110010001010010001001100110110110111011010010101001001111
0101010110111010101001110000101000100011110111011011001010000101001011010000111000110100010111000110
0011010110100100000100100010000001010000111011101001001000010111100011101001010000100101100110001110
1000110001110011111010110100010111100110110011010001010010001011001000111001000001101010100101111100
0111101111100001100000010110011101010111101101010111111000111111000001101011001000111001101001010011
1110110111100011101100010011011100011010100010001010000010100100001011101100011101010001011100010100
1110011000010111101100000101101010001110011000011000010110000011111000110011001111100110001010011100
1001001110011101010000110001110000101110010001111101100100011000010011010011010010000111011110001011
0000100000101101010011110100000110001001100010000000110010010101100011101001100100000100010001000111
1110101000000001110001011011011000101010110011011000101100100000010100110011101001100010010111000100
1000010011100110010000101000101100100111011100111001101001111000111110001001001111000110010000110110
0111111110000111101011001101110001000101110010000010000010111000001111100111111011111001100011010110
0010100101101110100011000110011011000101000000001000000111011011001000001110010101001000011110011010
1110001100111000011110110111000110100111100101110011011110100100110010001111010010110100000011001000
1110001010110101011010111111001001010100011011101100111110011101111001100100010101000001100011111111
1111101011010100111001101010110011001001100101000010010101010100100101001100011110011110001000100100
0101101011111111101001010111010100010101011101010001110000100101111100010110111000011010001001011111
0000110011110110101000000011000011100110000111001101010111101000100011110011111101000000010100101101
0010010110100101011111101111010011010010010100111110010111101010110101010010011000111101100010010001
0010001110010110100100001011001100011111100010100110001001001101000100101111101000001101001001101100
0001101100001011101000001101000101000010110111011010110100110100010101111111010011111010010111001101
0111110011100100101001110111000010001001100011011011101101100011011001000000101101110011110000011100
0011010001110100000001000000111001001110101001100001010001111010001011000001010011000011110001101100
1101101011001000100110011101011011110111101011101111010000111011011100011101010000010101110111101011
1101011101000010010110010000000001110011000010101011110111000011101011101111010101100000101101010011
1111111011011011000101100101010010011010110111111011101011111100011101100111100110010110011001000001
1100110110101010000000010010110100101000110010111101101111110111101001100101010101011101111100100101
0001100011011110000110000110111110110100110100110110010101101001110111001100100001000100111100000110
0001001010111111011100100101010100111110110110110101001111001100101100010100000010101100000110000011
0001111000111001110001001101111101101001010011101001010011100111001110000110010011101101100010101111
1111001000010100110100111000111101001101101001001100010111001111001110000010010010001000111010000010
0011010010110011001100100000111111000111000011110111101101011100000000000010011111100110001010111101
0001001010111110011100000110011010111000011110100101100111001010110110101101111000101011011011110001
0001001100000101001101100001000111001001111100100001010010010011111101000101111100010110001110110001
1111000110001101111110001001111000111100111111110101000111000100001000110101000100100000110100001001
1011010010001000101101011100110001100110111001011000111100111101010000010111011101010001101101111011
1010000111100010110100111101100001000101011110111011100000011010111001011000111110010101010000011100
1011110100001010001110111010101000001101011000010111111000011110001011000001111000001100100000010110
1000101011101100001011011011111001001110111000110100101101010000110111100010001001000101101110001110
0100011001111100110011001111010101111101110010000101011101011100110011011001010000011001011001000101
1101010100010010110010110010011001010100000000101001010001100001001101010010010001110010111000001011
0111010101111000100101011100101111000000011110010101111011101000111110001010111011110111011100010001
1000010110001010110110001000100111000110011001000110101110101100101011110010000110000001110010000001
0011101110111111110011101110000001111000011110001110000100100101000001100001101011111110110011001010
1010111010001010011011101110101010010100111100111101100111011001001011100000110101010101101011111101
0110111000111111111110000011010000101010011101111011001001111110101111101000011001011111110011111100
1111000000111101110101001111010011001011000101011001101111100100001110101000010011000010101000101011
1011101010100011111010111100000101001110110111001000001101110101000110100110000110100101001111100110
1010001001010101110011000010011011110111101101111000011010010000011010100101100011100000000000010010
0100000011101101101110000000000111110111100000100000100111100010110001110001111111001110100100100001
0011011110000010011000110001110010001100100010100110011001111011001100100000110111010110110101100100
1110101011101101111010000010010010000110001111101110101100101100000011000000101100111101101101111111
1111101111110010000001111100110000010010001100000111110011100010110010111001100001100011101001101100
0001010001011011110100001100001001001101110110110000110100110111011010100000100000101100100111011011
0010101100100100110100101010001111111100011111011101100010100011000001000000101011111100001011101101
1101010101010000111111011111001110101000101010001110011011001111011101011101110000001100010101111101
1001110110100111011010101010100100001100001101100110001111101011000010101001000010100010101111000011
0111010001000011011011011001010011110001010100011101100110100101001110011001011001010001001110010100
0111111011010000010001011111111100110010111101001101111110011001110001110000010010011110111001001011
1011010110100111011111110011111110111110001100011111001101111011100001011001100000110010101010110010
0010100100110100110110100100101010100001101100100110011111010011001100101001100000011111100000110110
0000101010001001101110101010100010101100110001001011011011001101010100101110100101010010010000100011
1100010000011110000100011110000000101011010110111010011011000110011110100111001001011101111011100011
0100000111111111100101011100011000100010101111110101111110011110000001111101101011110100001111110010
0000110001000001000011100101101001111111111101110100001111010100011011010000001000100101001110111100
1010001001000010110111100010101011000001111001011001101001100000011010001110011101100010100110011010
0011011110100011100010001101110000101001100110010000101000101001000111110010100111101100010101010011
1100100010010000011101011100011011001111101111100101011011000111000110110011001001011000111111100111
